<mxfile host="app.diagrams.net" modified="2024-04-25T03:47:34.307Z" agent="Mozilla/5.0 (Windows NT 10.0; Win64; x64) AppleWebKit/537.36 (KHTML, like Gecko) Chrome/124.0.0.0 Safari/537.36" etag="xnXzTzRkRNbfAaBJ0hPW" version="24.3.0" type="github">
  <diagram name="Page-1" id="Hv-sU0rHwPVsP2ACO9_v">
    <mxGraphModel dx="2350" dy="757" grid="1" gridSize="10" guides="1" tooltips="1" connect="1" arrows="1" fold="1" page="1" pageScale="1" pageWidth="850" pageHeight="1100" math="0" shadow="0">
      <root>
        <mxCell id="0" />
        <mxCell id="1" parent="0" />
        <mxCell id="lObtPn84sjL5cSR6as4E-34" value="" style="edgeStyle=orthogonalEdgeStyle;rounded=0;orthogonalLoop=1;jettySize=auto;html=1;" parent="1" source="lObtPn84sjL5cSR6as4E-1" target="lObtPn84sjL5cSR6as4E-33" edge="1">
          <mxGeometry relative="1" as="geometry" />
        </mxCell>
        <mxCell id="lObtPn84sjL5cSR6as4E-1" value="&lt;table border=&quot;1&quot; width=&quot;100%&quot; height=&quot;100%&quot; cellpadding=&quot;4&quot; style=&quot;width:100%;height:100%;border-collapse:collapse;&quot;&gt;&lt;tbody&gt;&lt;tr&gt;&lt;th align=&quot;center&quot;&gt;&lt;b&gt;Vehicle&lt;/b&gt;&lt;/th&gt;&lt;/tr&gt;&lt;tr&gt;&lt;td align=&quot;center&quot;&gt;Vehicle no;&lt;br&gt;VehicleType vt;&lt;br&gt;int costperhour;&lt;br&gt;int costperday;&lt;br&gt;Store store;&lt;br&gt;Status status;&lt;/td&gt;&lt;/tr&gt;&lt;tr&gt;&lt;td align=&quot;center&quot;&gt;&lt;br&gt;changeStore();&lt;br&gt;&lt;br&gt;&lt;/td&gt;&lt;/tr&gt;&lt;/tbody&gt;&lt;/table&gt;" style="text;html=1;whiteSpace=wrap;strokeColor=none;fillColor=none;overflow=fill;" parent="1" vertex="1">
          <mxGeometry x="50" y="180" width="180" height="180" as="geometry" />
        </mxCell>
        <mxCell id="lObtPn84sjL5cSR6as4E-7" value="&lt;ol&gt;&lt;li&gt;Vehicle&lt;/li&gt;&lt;li&gt;User&lt;/li&gt;&lt;li&gt;Location&lt;/li&gt;&lt;li&gt;Store&lt;/li&gt;&lt;li&gt;Payment&lt;/li&gt;&lt;li&gt;Bill&lt;/li&gt;&lt;li&gt;Reserve&lt;/li&gt;&lt;/ol&gt;" style="text;html=1;align=left;verticalAlign=middle;whiteSpace=wrap;rounded=0;" parent="1" vertex="1">
          <mxGeometry x="40" y="50" width="170" height="110" as="geometry" />
        </mxCell>
        <mxCell id="lObtPn84sjL5cSR6as4E-8" value="&lt;table border=&quot;1&quot; width=&quot;100%&quot; height=&quot;100%&quot; cellpadding=&quot;4&quot; style=&quot;width:100%;height:100%;border-collapse:collapse;&quot;&gt;&lt;tbody&gt;&lt;tr&gt;&lt;th align=&quot;center&quot;&gt;Location&lt;/th&gt;&lt;/tr&gt;&lt;tr&gt;&lt;td align=&quot;center&quot;&gt;String city;&lt;br&gt;String state;&lt;br&gt;String address;&lt;/td&gt;&lt;/tr&gt;&lt;tr&gt;&lt;td align=&quot;center&quot;&gt;&lt;br&gt;&lt;/td&gt;&lt;/tr&gt;&lt;/tbody&gt;&lt;/table&gt;" style="text;html=1;whiteSpace=wrap;strokeColor=none;fillColor=none;overflow=fill;" parent="1" vertex="1">
          <mxGeometry x="750" y="60" width="180" height="180" as="geometry" />
        </mxCell>
        <mxCell id="lObtPn84sjL5cSR6as4E-17" style="edgeStyle=orthogonalEdgeStyle;rounded=0;orthogonalLoop=1;jettySize=auto;html=1;entryX=1;entryY=0.5;entryDx=0;entryDy=0;" parent="1" source="lObtPn84sjL5cSR6as4E-9" target="lObtPn84sjL5cSR6as4E-14" edge="1">
          <mxGeometry relative="1" as="geometry" />
        </mxCell>
        <mxCell id="lObtPn84sjL5cSR6as4E-19" value="" style="edgeStyle=orthogonalEdgeStyle;rounded=0;orthogonalLoop=1;jettySize=auto;html=1;" parent="1" source="lObtPn84sjL5cSR6as4E-9" target="lObtPn84sjL5cSR6as4E-8" edge="1">
          <mxGeometry relative="1" as="geometry" />
        </mxCell>
        <mxCell id="lObtPn84sjL5cSR6as4E-22" style="edgeStyle=orthogonalEdgeStyle;rounded=0;orthogonalLoop=1;jettySize=auto;html=1;entryX=0.5;entryY=0;entryDx=0;entryDy=0;" parent="1" source="lObtPn84sjL5cSR6as4E-9" target="lObtPn84sjL5cSR6as4E-21" edge="1">
          <mxGeometry relative="1" as="geometry" />
        </mxCell>
        <mxCell id="lObtPn84sjL5cSR6as4E-9" value="&lt;table border=&quot;1&quot; width=&quot;100%&quot; height=&quot;100%&quot; cellpadding=&quot;4&quot; style=&quot;width:100%;height:100%;border-collapse:collapse;&quot;&gt;&lt;tbody&gt;&lt;tr&gt;&lt;th align=&quot;center&quot;&gt;Store&lt;/th&gt;&lt;/tr&gt;&lt;tr&gt;&lt;td align=&quot;center&quot;&gt;int noVehicles;&lt;br&gt;int storeid;&lt;br&gt;VehicleInventory vi;&lt;br&gt;Location location;&lt;br&gt;List&amp;lt;Reservation&amp;gt; reservations;&lt;br&gt;&lt;br&gt;&lt;/td&gt;&lt;/tr&gt;&lt;tr&gt;&lt;td align=&quot;center&quot;&gt;reserveVehicle(user);&lt;br&gt;&lt;br&gt;&lt;br&gt;&lt;/td&gt;&lt;/tr&gt;&lt;/tbody&gt;&lt;/table&gt;" style="text;html=1;whiteSpace=wrap;strokeColor=none;fillColor=none;overflow=fill;" parent="1" vertex="1">
          <mxGeometry x="510" y="60" width="180" height="180" as="geometry" />
        </mxCell>
        <mxCell id="lObtPn84sjL5cSR6as4E-12" style="edgeStyle=orthogonalEdgeStyle;rounded=0;orthogonalLoop=1;jettySize=auto;html=1;exitX=0.5;exitY=0;exitDx=0;exitDy=0;endArrow=block;endFill=0;entryX=0.25;entryY=1;entryDx=0;entryDy=0;" parent="1" source="lObtPn84sjL5cSR6as4E-10" target="lObtPn84sjL5cSR6as4E-1" edge="1">
          <mxGeometry relative="1" as="geometry" />
        </mxCell>
        <mxCell id="lObtPn84sjL5cSR6as4E-10" value="Car" style="rounded=0;whiteSpace=wrap;html=1;" parent="1" vertex="1">
          <mxGeometry x="-20" y="460" width="120" height="60" as="geometry" />
        </mxCell>
        <mxCell id="lObtPn84sjL5cSR6as4E-13" style="edgeStyle=orthogonalEdgeStyle;rounded=0;orthogonalLoop=1;jettySize=auto;html=1;entryX=0.75;entryY=1;entryDx=0;entryDy=0;endArrow=block;endFill=0;" parent="1" source="lObtPn84sjL5cSR6as4E-11" target="lObtPn84sjL5cSR6as4E-1" edge="1">
          <mxGeometry relative="1" as="geometry" />
        </mxCell>
        <mxCell id="lObtPn84sjL5cSR6as4E-11" value="Bike" style="rounded=0;whiteSpace=wrap;html=1;" parent="1" vertex="1">
          <mxGeometry x="150" y="460" width="120" height="60" as="geometry" />
        </mxCell>
        <mxCell id="lObtPn84sjL5cSR6as4E-15" style="edgeStyle=orthogonalEdgeStyle;rounded=0;orthogonalLoop=1;jettySize=auto;html=1;entryX=1;entryY=0.5;entryDx=0;entryDy=0;" parent="1" source="lObtPn84sjL5cSR6as4E-14" target="lObtPn84sjL5cSR6as4E-1" edge="1">
          <mxGeometry relative="1" as="geometry" />
        </mxCell>
        <mxCell id="lObtPn84sjL5cSR6as4E-14" value="&lt;table border=&quot;1&quot; width=&quot;100%&quot; height=&quot;100%&quot; cellpadding=&quot;4&quot; style=&quot;width:100%;height:100%;border-collapse:collapse;&quot;&gt;&lt;tbody&gt;&lt;tr&gt;&lt;th align=&quot;center&quot;&gt;&lt;b&gt;VehicleInventory&lt;/b&gt;&lt;/th&gt;&lt;/tr&gt;&lt;tr&gt;&lt;td align=&quot;center&quot;&gt;List&amp;lt;Vehicle&amp;gt; vehicles;&lt;br&gt;&lt;br&gt;&lt;/td&gt;&lt;/tr&gt;&lt;tr&gt;&lt;td align=&quot;center&quot;&gt;&lt;br&gt;&lt;br&gt;&lt;br&gt;&lt;/td&gt;&lt;/tr&gt;&lt;/tbody&gt;&lt;/table&gt;" style="text;html=1;whiteSpace=wrap;strokeColor=none;fillColor=none;overflow=fill;" parent="1" vertex="1">
          <mxGeometry x="280" y="185" width="160" height="170" as="geometry" />
        </mxCell>
        <mxCell id="lObtPn84sjL5cSR6as4E-20" style="edgeStyle=orthogonalEdgeStyle;rounded=0;orthogonalLoop=1;jettySize=auto;html=1;exitX=0.5;exitY=1;exitDx=0;exitDy=0;" parent="1" source="lObtPn84sjL5cSR6as4E-14" target="lObtPn84sjL5cSR6as4E-14" edge="1">
          <mxGeometry relative="1" as="geometry" />
        </mxCell>
        <mxCell id="lObtPn84sjL5cSR6as4E-23" style="edgeStyle=orthogonalEdgeStyle;rounded=0;orthogonalLoop=1;jettySize=auto;html=1;entryX=1;entryY=1;entryDx=0;entryDy=0;" parent="1" source="lObtPn84sjL5cSR6as4E-21" target="lObtPn84sjL5cSR6as4E-1" edge="1">
          <mxGeometry relative="1" as="geometry" />
        </mxCell>
        <mxCell id="lObtPn84sjL5cSR6as4E-24" style="edgeStyle=orthogonalEdgeStyle;rounded=0;orthogonalLoop=1;jettySize=auto;html=1;" parent="1" source="lObtPn84sjL5cSR6as4E-21" target="lObtPn84sjL5cSR6as4E-8" edge="1">
          <mxGeometry relative="1" as="geometry" />
        </mxCell>
        <mxCell id="dNt-6U5lO3R1R_B36Vul-1" style="edgeStyle=orthogonalEdgeStyle;rounded=0;orthogonalLoop=1;jettySize=auto;html=1;exitX=1;exitY=0.25;exitDx=0;exitDy=0;" edge="1" parent="1" source="lObtPn84sjL5cSR6as4E-21" target="lObtPn84sjL5cSR6as4E-35">
          <mxGeometry relative="1" as="geometry" />
        </mxCell>
        <mxCell id="lObtPn84sjL5cSR6as4E-21" value="&lt;table border=&quot;1&quot; width=&quot;100%&quot; height=&quot;100%&quot; cellpadding=&quot;4&quot; style=&quot;width:100%;height:100%;border-collapse:collapse;&quot;&gt;&lt;tbody&gt;&lt;tr&gt;&lt;th align=&quot;center&quot;&gt;Reservation&lt;/th&gt;&lt;/tr&gt;&lt;tr&gt;&lt;td align=&quot;center&quot;&gt;Vehicle vehicle;&lt;br&gt;int id;&lt;br&gt;date from;&lt;br&gt;date to;&lt;br&gt;Store store;&lt;br&gt;Location location;&lt;br&gt;Bill bill;&lt;br&gt;User user;&lt;/td&gt;&lt;/tr&gt;&lt;tr&gt;&lt;td align=&quot;center&quot;&gt;&lt;br&gt;&lt;br&gt;&lt;br&gt;&lt;/td&gt;&lt;/tr&gt;&lt;/tbody&gt;&lt;/table&gt;" style="text;html=1;whiteSpace=wrap;strokeColor=none;fillColor=none;overflow=fill;" parent="1" vertex="1">
          <mxGeometry x="520" y="355" width="160" height="170" as="geometry" />
        </mxCell>
        <mxCell id="lObtPn84sjL5cSR6as4E-27" style="edgeStyle=orthogonalEdgeStyle;rounded=0;orthogonalLoop=1;jettySize=auto;html=1;entryX=0;entryY=0.5;entryDx=0;entryDy=0;" parent="1" source="lObtPn84sjL5cSR6as4E-25" target="lObtPn84sjL5cSR6as4E-26" edge="1">
          <mxGeometry relative="1" as="geometry" />
        </mxCell>
        <mxCell id="lObtPn84sjL5cSR6as4E-25" value="&lt;table border=&quot;1&quot; width=&quot;100%&quot; height=&quot;100%&quot; cellpadding=&quot;4&quot; style=&quot;width:100%;height:100%;border-collapse:collapse;&quot;&gt;&lt;tbody&gt;&lt;tr&gt;&lt;th align=&quot;center&quot;&gt;Payment&lt;/th&gt;&lt;/tr&gt;&lt;tr&gt;&lt;td align=&quot;center&quot;&gt;Payment id;&lt;br&gt;PaymentMode pm;&lt;/td&gt;&lt;/tr&gt;&lt;tr&gt;&lt;td align=&quot;center&quot;&gt;&lt;br&gt;&lt;br&gt;&lt;br&gt;&lt;/td&gt;&lt;/tr&gt;&lt;/tbody&gt;&lt;/table&gt;" style="text;html=1;whiteSpace=wrap;strokeColor=none;fillColor=none;overflow=fill;" parent="1" vertex="1">
          <mxGeometry x="660" y="550" width="160" height="170" as="geometry" />
        </mxCell>
        <mxCell id="lObtPn84sjL5cSR6as4E-28" style="edgeStyle=orthogonalEdgeStyle;rounded=0;orthogonalLoop=1;jettySize=auto;html=1;exitX=0.5;exitY=0;exitDx=0;exitDy=0;" parent="1" source="lObtPn84sjL5cSR6as4E-26" target="lObtPn84sjL5cSR6as4E-21" edge="1">
          <mxGeometry relative="1" as="geometry" />
        </mxCell>
        <mxCell id="lObtPn84sjL5cSR6as4E-26" value="&lt;table border=&quot;1&quot; width=&quot;100%&quot; height=&quot;100%&quot; cellpadding=&quot;4&quot; style=&quot;width:100%;height:100%;border-collapse:collapse;&quot;&gt;&lt;tbody&gt;&lt;tr&gt;&lt;th align=&quot;center&quot;&gt;Bill&lt;/th&gt;&lt;/tr&gt;&lt;tr&gt;&lt;td align=&quot;center&quot;&gt;int billid;&lt;br&gt;Payment payment;&lt;br&gt;date;&lt;br&gt;int totalcost;&lt;br&gt;&lt;/td&gt;&lt;/tr&gt;&lt;tr&gt;&lt;td align=&quot;center&quot;&gt;&lt;br&gt;&lt;br&gt;&lt;br&gt;&lt;/td&gt;&lt;/tr&gt;&lt;/tbody&gt;&lt;/table&gt;" style="text;html=1;whiteSpace=wrap;strokeColor=none;fillColor=none;overflow=fill;" parent="1" vertex="1">
          <mxGeometry x="870" y="550" width="160" height="170" as="geometry" />
        </mxCell>
        <mxCell id="lObtPn84sjL5cSR6as4E-29" value="Car Rental LLD" style="text;html=1;align=center;verticalAlign=middle;whiteSpace=wrap;rounded=0;fontStyle=1;fontSize=20;" parent="1" vertex="1">
          <mxGeometry x="340" y="10" width="200" height="30" as="geometry" />
        </mxCell>
        <mxCell id="lObtPn84sjL5cSR6as4E-33" value="" style="rounded=0;whiteSpace=wrap;html=1;" parent="1" vertex="1">
          <mxGeometry x="-140" y="240" width="130" height="70" as="geometry" />
        </mxCell>
        <mxCell id="lObtPn84sjL5cSR6as4E-30" value="Status&lt;div&gt;enum {&lt;/div&gt;&lt;div&gt;book;&lt;/div&gt;&lt;div&gt;free;&lt;/div&gt;&lt;div&gt;}&lt;/div&gt;" style="text;html=1;align=center;verticalAlign=middle;whiteSpace=wrap;rounded=0;" parent="1" vertex="1">
          <mxGeometry x="-135" y="245" width="115" height="60" as="geometry" />
        </mxCell>
        <mxCell id="lObtPn84sjL5cSR6as4E-35" value="&lt;table border=&quot;1&quot; width=&quot;100%&quot; height=&quot;100%&quot; cellpadding=&quot;4&quot; style=&quot;width:100%;height:100%;border-collapse:collapse;&quot;&gt;&lt;tbody&gt;&lt;tr&gt;&lt;th align=&quot;center&quot;&gt;User&lt;/th&gt;&lt;/tr&gt;&lt;tr&gt;&lt;td align=&quot;center&quot;&gt;int userId;&lt;br&gt;String username;&lt;br&gt;Int drivingLicenceNumber;&lt;br&gt;&lt;/td&gt;&lt;/tr&gt;&lt;tr&gt;&lt;td align=&quot;center&quot;&gt;&lt;br&gt;&lt;br&gt;&lt;br&gt;&lt;/td&gt;&lt;/tr&gt;&lt;/tbody&gt;&lt;/table&gt;" style="text;html=1;whiteSpace=wrap;strokeColor=none;fillColor=none;overflow=fill;" parent="1" vertex="1">
          <mxGeometry x="900" y="310" width="160" height="170" as="geometry" />
        </mxCell>
        <mxCell id="lObtPn84sjL5cSR6as4E-41" style="edgeStyle=orthogonalEdgeStyle;rounded=0;orthogonalLoop=1;jettySize=auto;html=1;exitX=0.5;exitY=0;exitDx=0;exitDy=0;entryX=0.5;entryY=0;entryDx=0;entryDy=0;" parent="1" source="lObtPn84sjL5cSR6as4E-38" target="lObtPn84sjL5cSR6as4E-9" edge="1">
          <mxGeometry relative="1" as="geometry" />
        </mxCell>
        <mxCell id="lObtPn84sjL5cSR6as4E-42" style="edgeStyle=orthogonalEdgeStyle;rounded=0;orthogonalLoop=1;jettySize=auto;html=1;entryX=1;entryY=0.5;entryDx=0;entryDy=0;" parent="1" source="lObtPn84sjL5cSR6as4E-38" target="lObtPn84sjL5cSR6as4E-35" edge="1">
          <mxGeometry relative="1" as="geometry" />
        </mxCell>
        <mxCell id="lObtPn84sjL5cSR6as4E-38" value="&lt;table border=&quot;1&quot; width=&quot;100%&quot; height=&quot;100%&quot; cellpadding=&quot;4&quot; style=&quot;width:100%;height:100%;border-collapse:collapse;&quot;&gt;&lt;tbody&gt;&lt;tr&gt;&lt;th align=&quot;center&quot;&gt;CarRentalSystem&lt;/th&gt;&lt;/tr&gt;&lt;tr&gt;&lt;td align=&quot;center&quot;&gt;List&amp;lt;user&amp;gt; users;&lt;br&gt;List&amp;lt;Stores&amp;gt; stores;&lt;/td&gt;&lt;/tr&gt;&lt;tr&gt;&lt;td align=&quot;center&quot;&gt;&lt;br&gt;&lt;br&gt;&lt;br&gt;&lt;/td&gt;&lt;/tr&gt;&lt;/tbody&gt;&lt;/table&gt;" style="text;html=1;whiteSpace=wrap;strokeColor=none;fillColor=none;overflow=fill;" parent="1" vertex="1">
          <mxGeometry x="1020" y="40" width="160" height="170" as="geometry" />
        </mxCell>
      </root>
    </mxGraphModel>
  </diagram>
</mxfile>
